<svg version="1.1" id="Layer_1" xmlns="http://www.w3.org/2000/svg" xmlns:xlink="http://www.w3.org/1999/xlink" x="0px" y="0px"
    viewBox="0 0 387 250" enable-background="new 0 0 387 250" xml:space="preserve">
<path fill="#118AFA" opacity="1.000000" stroke="none" 
	d="
M20.992586,165.003174 
	C30.244179,152.362717 39.436485,140.079559 48.634087,127.800362 
	C54.594490,119.842979 60.520958,111.859352 66.581665,103.979027 
	C67.314209,103.026550 68.775986,102.119926 69.924789,102.087868 
	C76.395050,101.907272 82.872963,102.000710 90.418869,102.000710 
	C88.876427,124.959396 87.356377,147.584717 85.809723,170.606049 
	C80.165230,170.606049 74.439079,170.606049 67.885399,170.606049 
	C68.174561,165.633102 68.471924,160.519073 68.792641,155.003387 
	C61.777485,155.003387 54.978771,154.926758 48.185146,155.078308 
	C47.043892,155.103745 45.913330,156.095184 44.803249,156.687897 
	C44.526985,156.835403 44.266087,157.131744 44.139099,157.421478 
	C39.065701,168.996780 30.795387,174.351242 17.555944,170.086502 
	C18.510014,168.752808 19.722780,167.057495 20.992586,165.003174 
M70.817398,119.764587 
	C65.970840,126.679680 61.124283,133.594772 56.095524,140.769836 
	C61.410881,140.769836 65.997292,140.769836 71.048767,140.769836 
	C71.398109,133.730865 71.737251,126.897331 72.663826,119.791344 
	C72.712090,119.015114 72.760353,118.238892 72.855644,116.706306 
	C72.072105,118.047836 71.703331,118.679222 70.817398,119.764587 
z"/>
<path fill="#2B2B2B" opacity="1.000000" stroke="none" 
	d="
M350.001892,159.832474 
	C345.223053,167.893433 338.262360,171.120102 329.441162,171.020523 
	C320.796844,170.922913 312.149841,171.065704 303.505341,170.975647 
	C295.412720,170.891357 291.752289,167.244125 294.197815,159.838699 
	C297.814728,148.886093 302.275421,138.118713 307.434448,127.801315 
	C310.932648,120.805420 317.955688,117.996918 325.847107,118.000526 
	C333.827484,118.004181 341.810089,117.888107 349.787750,118.036407 
	C360.668579,118.238670 364.452118,124.173386 360.351349,134.067474 
	C356.854919,142.503525 353.560913,151.023468 350.001892,159.832474 
M314.565186,147.112167 
	C313.805664,149.311996 312.613739,151.480545 312.451599,153.723572 
	C312.356903,155.033005 313.839508,157.596512 314.730835,157.650711 
	C320.189667,157.982727 325.712524,158.068604 331.146240,157.539734 
	C332.888367,157.370163 335.121643,155.415161 335.927704,153.708954 
	C338.616302,148.017746 340.930328,142.126663 342.947937,136.163345 
	C343.294006,135.140472 341.699005,132.346466 340.641296,132.130447 
	C325.247772,128.986664 319.531036,131.373138 315.950439,143.601883 
	C315.671173,144.555679 315.226440,145.461029 314.565186,147.112167 
z"/>
<path fill="#128AFA" opacity="1.000000" stroke="none" 
	d="
M221.945679,129.137299 
	C220.210281,130.031540 218.567520,130.898209 216.906937,130.933868 
	C209.706146,131.088425 202.497391,130.880585 195.297134,131.047089 
	C191.209656,131.141632 187.571487,132.264465 186.898209,138.000015 
	C194.246704,138.000015 201.316086,137.989868 208.385437,138.002731 
	C216.262085,138.017059 218.611557,141.061050 216.018005,148.477615 
	C214.311554,153.357391 212.310867,158.181244 209.936218,162.768356 
	C207.046295,168.350830 201.696930,170.755890 195.775650,170.903290 
	C183.133575,171.218002 170.478241,170.999573 157.355331,170.999573 
	C158.804764,167.164688 159.951492,163.502869 161.617996,160.095245 
	C162.133377,159.041443 164.050400,158.121353 165.347382,158.091751 
	C173.334808,157.909653 181.328430,158.000443 189.319992,157.999008 
	C190.318878,157.998825 191.614243,158.388336 192.259323,157.908203 
	C193.977600,156.629257 195.415939,154.974228 196.965576,153.468735 
	C195.393143,152.646378 193.858765,151.216217 192.241165,151.114899 
	C187.265915,150.803314 182.257599,151.069336 177.264389,150.981903 
	C171.083649,150.873657 168.006393,146.690918 169.998062,140.940964 
	C171.588486,136.349457 173.328888,131.792221 175.315521,127.359955 
	C177.975204,121.426056 183.176254,118.372581 189.268616,118.140266 
	C201.388031,117.678131 213.537476,118.003494 226.300262,118.003494 
	C224.753281,121.888489 223.391693,125.307892 221.945679,129.137299 
z"/>
<path fill="#1089F9" opacity="1.000000" stroke="none" 
	d="
M285.843201,50.064468 
	C293.068909,38.447727 300.294647,26.830990 307.520386,15.214252 
	C308.027161,15.440252 308.533905,15.666253 309.040680,15.892253 
	C303.770538,28.195301 297.641174,40.131901 291.460907,52.629494 
	C290.704315,54.032307 290.403687,55.046883 289.954041,56.385857 
	C287.446411,61.597393 285.087799,66.484535 282.715698,71.399612 
	C283.549072,72.076118 283.888763,72.485268 284.324493,72.686211 
	C297.726562,78.866745 311.146179,85.009087 324.544830,91.196976 
	C332.335388,94.794868 340.094513,98.460762 347.976776,102.387222 
	C348.622955,103.264862 349.160126,103.851341 349.902893,104.662262 
	C349.115112,104.860909 348.538696,105.006264 347.962250,105.151611 
	C324.892822,96.100685 301.823425,87.049767 278.423431,77.869148 
	C255.073654,116.709541 231.743332,155.517563 208.413025,194.325592 
	C207.832581,193.990692 207.252136,193.655807 206.671692,193.320908 
	C227.845352,153.801132 249.018997,114.281349 270.600067,74.001152 
	C249.678772,64.557373 229.124054,55.279053 208.122055,45.593884 
	C205.101639,44.177994 202.528488,43.168953 199.955353,42.159912 
	C189.205521,36.952000 178.455688,31.744089 167.705872,26.536177 
	C167.851685,26.143757 167.997513,25.751335 168.143341,25.358913 
	C180.171921,30.166466 192.200485,34.974018 204.757904,40.245388 
	C208.121353,41.486797 210.955933,42.264389 213.979828,43.365906 
	C222.297073,46.852283 230.437088,49.984131 238.550018,53.184631 
	C249.670013,57.571396 260.784088,61.974094 271.866974,66.453346 
	C274.491394,67.514023 276.001129,67.063034 277.356598,64.371483 
	C279.318024,60.476768 281.813690,56.851120 284.395020,53.001244 
	C285.086761,51.949364 285.464966,51.006916 285.843201,50.064468 
z"/>
<path fill="#2B2B2B" opacity="1.000000" stroke="none" 
	d="
M280.645142,164.687439 
	C275.442780,169.001068 269.760101,170.988266 263.380951,170.995682 
	C253.065567,171.007660 242.749664,171.056427 232.434967,170.970642 
	C226.869904,170.924362 226.159332,169.670792 229.073608,164.860382 
	C232.912186,158.524338 236.968063,152.319931 242.027374,146.537399 
	C241.733353,147.888458 241.548096,149.274551 241.126373,150.584488 
	C239.368149,156.045975 239.979385,156.931107 245.898376,156.988327 
	C251.055603,157.038177 256.213684,157.005417 261.371368,156.999496 
	C268.435669,156.991409 270.305298,155.721451 272.800934,149.145569 
	C273.434662,147.475769 273.931824,145.754135 274.724182,143.351456 
	C269.428680,143.116425 264.583923,142.901413 258.605988,142.636108 
	C260.413513,138.130142 261.731750,134.279236 263.552704,130.682922 
	C264.036652,129.727203 266.056519,129.113907 267.383911,129.091339 
	C275.866699,128.947159 284.353058,129.018890 292.838226,129.004333 
	C296.490906,128.998062 297.574066,130.010254 295.798492,133.827988 
	C292.311554,141.325287 289.543793,149.154770 286.146576,156.697296 
	C284.883942,159.500549 282.691040,161.884796 280.645142,164.687439 
z"/>
<path fill="#118AFA" opacity="1.000000" stroke="none" 
	d="
M100.256256,149.367538 
	C103.082924,142.763336 105.549667,136.426544 108.378113,130.255539 
	C112.212830,121.889061 118.430504,117.226868 128.138947,117.936684 
	C133.097336,118.299210 138.104111,118.000191 143.917648,118.000191 
	C142.305527,121.947914 141.030746,125.646652 139.247711,129.081558 
	C138.718018,130.101974 136.744476,130.941727 135.458817,130.906433 
	C128.358231,130.711517 123.506546,132.962463 121.043327,140.390335 
	C117.885918,149.911484 113.789444,159.125717 109.940033,168.406845 
	C109.494148,169.481918 108.080666,170.822754 107.054588,170.876724 
	C102.142296,171.135101 97.208908,170.992661 91.953094,170.992661 
	C94.790230,163.541763 97.423866,156.625305 100.256256,149.367538 
z"/>
<path fill="#118AFA" opacity="1.000000" stroke="none" 
	d="
M133.515274,170.996887 
	C128.526337,170.563156 132.057678,167.440826 132.284027,166.827560 
	C135.531677,158.028900 139.209549,149.390335 142.697784,140.678772 
	C145.219009,134.382233 147.601700,128.030334 150.068558,121.711861 
	C151.033554,119.240181 152.377609,117.643410 155.548233,117.916069 
	C159.608185,118.265213 163.720886,118.000854 168.718140,118.000854 
	C164.945786,127.471634 161.495148,136.147369 158.034515,144.819107 
	C155.036331,152.331970 151.830292,159.770477 149.124207,167.386856 
	C148.116714,170.222412 146.877914,171.287094 143.923843,171.058731 
	C140.620697,170.803360 137.282623,170.999634 133.515274,170.996887 
z"/>
<path fill="#2B2B2B" opacity="1.000000" stroke="none" 
	d="
M264.656494,115.993584 
	C263.268372,115.898727 262.294434,115.805092 261.305756,115.710045 
	C262.921173,106.654144 268.183197,102.001633 276.638580,102.001160 
	C287.051666,102.000580 297.464752,102.001022 308.376282,102.001022 
	C306.981995,105.821365 305.878784,109.059044 304.617828,112.234077 
	C303.527069,114.980499 301.540344,116.101242 298.426971,116.055458 
	C287.310303,115.891960 276.189758,115.993538 264.656494,115.993584 
z"/>
<path fill="#2A2A2B" opacity="1.000000" stroke="none" 
	d="
M347.911743,105.499847 
	C348.538696,105.006264 349.115112,104.860909 349.902893,104.662262 
	C349.160126,103.851341 348.622955,103.264862 347.957214,102.017593 
	C346.374817,98.228157 345.458923,94.675308 343.380188,92.039452 
	C329.478210,74.411423 310.496796,64.159012 290.103058,56.061459 
	C290.403687,55.046883 290.704315,54.032307 291.388916,52.996086 
	C312.272339,61.393204 331.788269,71.421524 347.211456,87.853783 
	C352.002930,92.958771 356.356354,98.489006 355.709106,106.662483 
	C355.637695,107.747147 355.769592,108.351067 355.901459,108.954979 
	C354.136139,114.910110 349.663025,112.604713 345.151917,112.748016 
	C346.225464,110.013947 347.043335,107.931015 347.911743,105.499847 
M351.500763,104.526398 
	C351.500763,104.526398 351.486450,104.486717 351.500763,104.526398 
z"/>
<path fill="#2A2B2B" opacity="1.000000" stroke="none" 
	d="
M199.729660,42.393295 
	C202.528488,43.168953 205.101639,44.177994 207.741913,45.508446 
	C198.285309,50.038651 196.815811,58.715633 203.872894,68.380219 
	C212.095215,79.640564 223.525818,86.926208 235.236359,93.856117 
	C239.185577,96.193138 243.310410,98.233414 247.354980,100.409325 
	C247.301071,100.901329 247.247162,101.393341 247.193253,101.885345 
	C245.759705,101.885345 244.078049,102.382973 242.929932,101.810516 
	C226.395233,93.566109 210.358032,84.518974 198.538254,69.812469 
	C195.900558,66.530594 193.773941,62.541721 192.490540,58.533051 
	C190.243317,51.514046 193.572830,46.352917 199.729660,42.393295 
z"/>
<path fill="#2B2B2B" opacity="1.000000" stroke="none" 
	d="
M285.464783,50.028008 
	C285.464966,51.006916 285.086761,51.949364 284.022278,52.911850 
	C277.802704,51.218037 272.300507,49.394981 266.730408,47.810612 
	C249.392960,42.879116 231.838074,40.175858 213.790527,43.041977 
	C210.955933,42.264389 208.121353,41.486797 205.086304,40.414299 
	C215.429962,36.930008 226.369858,36.815762 236.880966,38.717236 
	C253.098557,41.651020 269.032288,46.154099 285.464783,50.028008 
z"/>
<path fill="#118AFA" opacity="1.000000" stroke="none" 
	d="
M165.702789,114.999153 
	C161.423203,114.999176 157.602158,114.999176 153.199463,114.999176 
	C154.486252,111.604881 155.539505,108.461121 156.913254,105.464272 
	C157.249680,104.730362 158.623108,104.094841 159.539459,104.067238 
	C164.181320,103.927391 168.829651,104.002853 173.507187,104.002853 
	C172.322037,112.606544 170.907516,114.686913 165.702789,114.999153 
z"/>
<path fill="#272727" opacity="1.000000" stroke="none" 
	d="
M234.635223,133.648376 
	C232.539627,137.509933 230.615860,141.041260 228.692093,144.572571 
	C227.914810,134.132141 240.703033,109.493828 247.829041,107.152130 
	C243.279419,116.294014 239.043243,124.806068 234.635223,133.648376 
z"/>
<path fill="#292A2C" opacity="1.000000" stroke="none" 
	d="
M356.080627,108.797958 
	C355.769592,108.351067 355.637695,107.747147 355.698914,107.084274 
	C356.014618,107.563858 356.137207,108.102402 356.080627,108.797958 
z"/>
<path fill="#292A2C" opacity="1.000000" stroke="none" 
	d="
M351.493591,104.506561 
	C351.486450,104.486717 351.500763,104.526398 351.493591,104.506561 
z"/>
</svg>